<mxfile host="www.draw.io" modified="2019-12-06T19:28:09.623Z" agent="Mozilla/5.0 (Macintosh; Intel Mac OS X 10.14; rv:70.0) Gecko/20100101 Firefox/70.0" etag="gy7wSF_bfbuFhOCh6tMJ" version="12.3.2" type="github" pages="1">
  <diagram id="VXpv7-vEXYzIDr4mmjwC" name="Page-1">
    <mxGraphModel dx="1493" dy="858" grid="1" gridSize="10" guides="1" tooltips="1" connect="1" arrows="1" fold="1" page="1" pageScale="1" pageWidth="827" pageHeight="1169" math="0" shadow="0">
      <root>
        <mxCell id="0"/>
        <mxCell id="1" parent="0"/>
        <mxCell id="-AfSCg9nIeDX3-ISmlb3-1" value="" style="rounded=1;whiteSpace=wrap;html=1;" vertex="1" parent="1">
          <mxGeometry x="110" y="140" width="120" height="60" as="geometry"/>
        </mxCell>
      </root>
    </mxGraphModel>
  </diagram>
</mxfile>
